<svg width="90" height="26" viewBox="0 0 90 26" fill="none" xmlns="http://www.w3.org/2000/svg">
<path d="M25.9868 12.448C25.9868 11.6593 26.1263 10.8828 26.4054 10.1184C26.6966 9.354 27.1152 8.6624 27.6612 8.0436C28.2072 7.4248 28.8745 6.9334 29.6632 6.5694C30.4519 6.19327 31.3497 6.0052 32.3568 6.0052C33.5337 6.0052 34.559 6.26607 35.4326 6.7878C36.3062 7.30953 36.9553 7.989 37.38 8.8262L35.4508 10.1548C35.2324 9.66947 34.9473 9.28727 34.5954 9.0082C34.2435 8.72913 33.8613 8.52893 33.4488 8.4076C33.0484 8.28627 32.6601 8.2256 32.284 8.2256C31.6531 8.2256 31.101 8.353 30.6278 8.6078C30.1667 8.8626 29.7785 9.19627 29.463 9.6088C29.1475 10.0213 28.9109 10.4824 28.7532 10.992C28.6076 11.5016 28.5348 12.0112 28.5348 12.5208C28.5348 13.2852 28.6925 14.0011 29.008 14.6684C29.3235 15.3236 29.7663 15.8575 30.3366 16.27C30.9069 16.6825 31.5681 16.8888 32.3204 16.8888C32.7087 16.8888 33.1091 16.8221 33.5216 16.6886C33.9463 16.5551 34.3345 16.3428 34.6864 16.0516C35.0383 15.7604 35.3113 15.3843 35.5054 14.9232L37.562 16.1062C37.2951 16.7493 36.8765 17.2953 36.3062 17.7442C35.7359 18.181 35.0929 18.5207 34.377 18.7634C33.6611 18.9939 32.9513 19.1092 32.2476 19.1092C31.3255 19.1092 30.4822 18.9211 29.7178 18.545C28.9655 18.1567 28.3103 17.6471 27.7522 17.0162C27.1941 16.3731 26.7573 15.6573 26.4418 14.8686C26.1385 14.0678 25.9868 13.2609 25.9868 12.448ZM44.6882 11.5744C43.948 11.5744 43.2868 11.72 42.7044 12.0112C42.122 12.2903 41.7034 12.6967 41.4486 13.2306V19H39.0098V9.4632H41.2484V11.5016C41.576 10.8464 42.0006 10.3307 42.5224 9.9546C43.0562 9.57847 43.6144 9.3722 44.1968 9.3358C44.4516 9.3358 44.6154 9.34187 44.6882 9.354V11.5744ZM50.328 19.182C49.2846 19.182 48.3867 18.9575 47.6344 18.5086C46.8943 18.0475 46.324 17.4409 45.9236 16.6886C45.5232 15.9363 45.323 15.1234 45.323 14.2498C45.323 13.3641 45.5232 12.5451 45.9236 11.7928C46.3362 11.0405 46.9125 10.4399 47.6526 9.991C48.4049 9.52993 49.2967 9.2994 50.328 9.2994C51.3594 9.2994 52.2451 9.52993 52.9852 9.991C53.7375 10.4399 54.3138 11.0405 54.7142 11.7928C55.1146 12.5451 55.3148 13.3641 55.3148 14.2498C55.3148 15.1234 55.1146 15.9363 54.7142 16.6886C54.3138 17.4409 53.7375 18.0475 52.9852 18.5086C52.2451 18.9575 51.3594 19.182 50.328 19.182ZM47.8346 14.2498C47.8346 14.8079 47.9438 15.3054 48.1622 15.7422C48.3806 16.1669 48.6779 16.5005 49.054 16.7432C49.4302 16.9859 49.8548 17.1072 50.328 17.1072C50.7891 17.1072 51.2077 16.9859 51.5838 16.7432C51.96 16.4884 52.2572 16.1487 52.4756 15.724C52.7062 15.2872 52.8214 14.7897 52.8214 14.2316C52.8214 13.6856 52.7062 13.2003 52.4756 12.7756C52.2572 12.3388 51.96 11.9991 51.5838 11.7564C51.2077 11.5016 50.7891 11.3742 50.328 11.3742C49.8548 11.3742 49.4302 11.5016 49.054 11.7564C48.6779 11.9991 48.3806 12.3388 48.1622 12.7756C47.9438 13.2003 47.8346 13.6917 47.8346 14.2498ZM56.9609 8.1346V5.714H59.3997V8.1346H56.9609ZM56.9609 19V9.4632H59.3997V19H56.9609ZM76.4146 19H73.9758V13.6492C73.9758 12.8969 73.8423 12.3449 73.5754 11.993C73.3206 11.629 72.9627 11.447 72.5016 11.447C72.0163 11.447 71.5613 11.6351 71.1366 12.0112C70.7119 12.3752 70.4086 12.8545 70.2266 13.449V19H67.7878V13.6492C67.7878 12.8848 67.6543 12.3267 67.3874 11.9748C67.1326 11.6229 66.7747 11.447 66.3136 11.447C65.8404 11.447 65.3854 11.629 64.9486 11.993C64.5239 12.357 64.2206 12.8363 64.0386 13.4308V19H61.5998V9.4632H63.802V11.2286C64.1539 10.6098 64.6331 10.1366 65.2398 9.809C65.8586 9.46927 66.5623 9.2994 67.351 9.2994C68.1397 9.2994 68.7524 9.49353 69.1892 9.8818C69.6381 10.2701 69.9233 10.7493 70.0446 11.3196C70.4207 10.6644 70.9121 10.1669 71.5188 9.8272C72.1255 9.47533 72.8049 9.2994 73.5572 9.2994C74.1517 9.2994 74.631 9.4086 74.995 9.627C75.3711 9.83327 75.6623 10.1184 75.8686 10.4824C76.0749 10.8343 76.2144 11.2347 76.2872 11.6836C76.3721 12.1325 76.4146 12.5875 76.4146 13.0486V19ZM82.9423 19.182C81.8988 19.182 81.0009 18.9575 80.2487 18.5086C79.5085 18.0475 78.9383 17.4409 78.5379 16.6886C78.1375 15.9363 77.9373 15.1234 77.9373 14.2498C77.9373 13.3641 78.1375 12.5451 78.5379 11.7928C78.9504 11.0405 79.5267 10.4399 80.2669 9.991C81.0191 9.52993 81.9109 9.2994 82.9423 9.2994C83.9736 9.2994 84.8593 9.52993 85.5995 9.991C86.3517 10.4399 86.9281 11.0405 87.3285 11.7928C87.7289 12.5451 87.9291 13.3641 87.9291 14.2498C87.9291 15.1234 87.7289 15.9363 87.3285 16.6886C86.9281 17.4409 86.3517 18.0475 85.5995 18.5086C84.8593 18.9575 83.9736 19.182 82.9423 19.182ZM80.4489 14.2498C80.4489 14.8079 80.5581 15.3054 80.7765 15.7422C80.9949 16.1669 81.2921 16.5005 81.6683 16.7432C82.0444 16.9859 82.4691 17.1072 82.9423 17.1072C83.4033 17.1072 83.8219 16.9859 84.1981 16.7432C84.5742 16.4884 84.8715 16.1487 85.0899 15.724C85.3204 15.2872 85.4357 14.7897 85.4357 14.2316C85.4357 13.6856 85.3204 13.2003 85.0899 12.7756C84.8715 12.3388 84.5742 11.9991 84.1981 11.7564C83.8219 11.5016 83.4033 11.3742 82.9423 11.3742C82.4691 11.3742 82.0444 11.5016 81.6683 11.7564C81.2921 11.9991 80.9949 12.3388 80.7765 12.7756C80.5581 13.2003 80.4489 13.6917 80.4489 14.2498Z" fill="#0D0F61"/>
<path d="M15.6 20.7998V11.0074C15.6 6.36402 11.5258 2.59981 6.5 2.59981L6.5 12.3922C6.5 17.0356 10.5742 20.7998 15.6 20.7998Z" fill="#242164"/>
<path d="M7.92288 12.9434L19.5742 18.0799C20.6443 15.6525 17.9646 12.1209 13.5889 10.1919L1.93761 5.05547C0.867498 7.48288 3.54719 11.0144 7.92288 12.9434Z" fill="#3F9F98"/>
<path d="M56.6916 6.96234L56.5895 9.5541C58.3177 9.62217 59.7497 8.8883 59.7881 7.91496L59.8902 5.3232C58.162 5.25513 56.7299 5.989 56.6916 6.96234Z" fill="#3F9F98"/>
</svg>
